<svg width="2303" height="546" viewBox="0 0 2303 546" fill="none" xmlns="http://www.w3.org/2000/svg">
<path d="M9.00006 540.999C2.60006 540.999 -0.066611 538.066 1.00006 532.199L81.0001 25.7992C82.6001 19.9325 85.8001 16.9992 90.6001 16.9992H154.6C160.467 16.9992 162.867 19.9325 161.8 25.7992L141 158.599C138.333 176.199 135.4 194.066 132.2 212.199C129 230.333 125.267 248.733 121 267.399H122.6C132.2 248.733 142.067 230.599 152.2 212.999C162.333 194.866 172.733 176.999 183.4 159.399L267.4 25.7992C270.6 19.9325 274.6 16.9992 279.4 16.9992H352.2C354.867 16.9992 356.733 18.0659 357.8 20.1992C358.867 21.7992 358.6 23.6659 357 25.7992L220.2 242.599L287.4 532.199C288.467 538.066 285.8 540.999 279.4 540.999H210.6C205.8 540.999 202.867 538.066 201.8 532.199L154.6 310.599L105.8 381.799L81.0001 532.199C80.4667 538.066 77.5334 540.999 72.2001 540.999H9.00006Z" fill="#F7F7F7"/>
<path d="M329.313 540.999C322.913 540.999 320.246 538.066 321.313 532.199L401.313 25.7992C402.913 19.9325 406.113 16.9992 410.913 16.9992H474.913C480.779 16.9992 483.179 19.9325 482.113 25.7992L401.313 532.199C400.779 538.066 397.846 540.999 392.513 540.999H329.313Z" fill="#F7F7F7"/>
<path d="M610.55 545.799C563.617 545.799 529.217 531.133 507.35 501.799C485.483 471.933 479.083 427.933 488.15 369.799L519.35 173.799C528.417 118.333 545.75 77.5325 571.35 51.3992C596.95 25.2659 632.683 12.1992 678.55 12.1992C711.617 12.1992 738.283 19.9325 758.55 35.3992C779.35 50.8659 793.217 72.1992 800.15 99.3992C807.083 126.066 805.75 157.266 796.15 192.999C794.55 198.866 791.35 201.799 786.55 201.799H722.55C716.15 201.799 713.75 198.866 715.35 192.999C722.817 159.933 723.083 134.333 716.15 116.199C709.217 97.5325 694.017 88.1992 670.55 88.1992C650.283 88.1992 634.817 95.1325 624.15 108.999C613.483 122.333 605.483 144.733 600.15 176.199L568.15 372.999C563.35 406.599 564.95 431.133 572.95 446.599C580.95 462.066 596.15 469.799 618.55 469.799C642.017 469.799 659.083 460.199 669.75 440.999C680.417 421.799 686.817 396.466 688.95 364.999C689.483 359.133 692.417 356.199 697.75 356.199H761.75C764.417 356.199 766.55 356.733 768.15 357.799C769.75 358.866 770.283 361.266 769.75 364.999C767.083 421.533 752.417 465.799 725.75 497.799C699.617 529.799 661.217 545.799 610.55 545.799Z" fill="#F7F7F7"/>
<path d="M812.906 540.999C806.506 540.999 803.84 538.066 804.906 532.199L884.906 25.7992C886.506 19.9325 889.706 16.9992 894.506 16.9992H958.506C964.373 16.9992 966.773 19.9325 965.706 25.7992L944.906 158.599C942.24 176.199 939.306 194.066 936.106 212.199C932.906 230.333 929.173 248.733 924.906 267.399H926.506C936.106 248.733 945.973 230.599 956.106 212.999C966.24 194.866 976.64 176.999 987.306 159.399L1071.31 25.7992C1074.51 19.9325 1078.51 16.9992 1083.31 16.9992H1156.11C1158.77 16.9992 1160.64 18.0659 1161.71 20.1992C1162.77 21.7992 1162.51 23.6659 1160.91 25.7992L1024.11 242.599L1091.31 532.199C1092.37 538.066 1089.71 540.999 1083.31 540.999H1014.51C1009.71 540.999 1006.77 538.066 1005.71 532.199L958.506 310.599L909.706 381.799L884.906 532.199C884.373 538.066 881.44 540.999 876.106 540.999H812.906Z" fill="#F7F7F7"/>
<path d="M1731.66 540.999C1725.26 540.999 1722.59 538.066 1723.66 532.199L1803.66 25.7992C1805.26 19.9325 1808.46 16.9992 1813.26 16.9992H2019.66C2024.99 16.9992 2027.12 19.9325 2026.06 25.7992L2017.26 83.3992C2016.19 89.2659 2012.99 92.1992 2007.66 92.1992H1874.06L1850.06 246.599H1965.26C1970.59 246.599 1972.72 249.533 1971.66 255.399L1962.06 310.599C1962.06 316.999 1959.39 320.199 1954.06 320.199H1838.06L1803.66 532.199C1803.12 538.066 1800.19 540.999 1794.86 540.999H1731.66Z" fill="#F7F7F7"/>
<path d="M2007.44 540.999C2001.04 540.999 1998.37 538.066 1999.44 532.199L2079.44 25.7992C2081.04 19.9325 2084.24 16.9992 2089.04 16.9992H2295.44C2300.77 16.9992 2302.9 19.9325 2301.84 25.7992L2293.04 83.3992C2291.97 89.2659 2288.77 92.1992 2283.44 92.1992H2149.84L2125.84 246.599H2241.04C2246.37 246.599 2248.5 249.533 2247.44 255.399L2237.84 310.599C2237.84 316.999 2235.17 320.199 2229.84 320.199H2113.84L2079.44 532.199C2078.9 538.066 2075.97 540.999 2070.64 540.999H2007.44Z" fill="#F7F7F7"/>
<path d="M1475 495C1444.25 495 1415.19 489.094 1387.81 477.281C1360.44 465.469 1336.53 449.344 1316.09 428.906C1295.66 408.469 1279.53 384.562 1267.72 357.187C1255.91 329.812 1250 300.75 1250 270C1250 238.875 1255.91 209.719 1267.72 182.531C1279.53 155.344 1295.66 131.531 1316.09 111.094C1336.53 90.6562 1360.44 74.5312 1387.81 62.7187C1415.19 50.9062 1444.25 45 1475 45C1506.12 45 1535.28 50.9062 1562.47 62.7187C1589.66 74.5312 1613.47 90.6562 1633.91 111.094C1654.34 131.531 1670.47 155.344 1682.28 182.531C1694.09 209.719 1700 238.875 1700 270C1700 300.75 1694.09 329.812 1682.28 357.187C1670.47 384.562 1654.34 408.469 1633.91 428.906C1613.47 449.344 1589.66 465.469 1562.47 477.281C1535.28 489.094 1506.12 495 1475 495ZM1590.31 217.687L1629.12 204.187L1639.25 168.187C1626.5 148.312 1610.75 131.344 1592 117.281C1573.25 103.219 1552.06 92.4375 1528.44 84.9375L1491.87 109.125V148.5L1590.31 217.687ZM1360.25 217.687L1458.12 148.5V109.125L1422.12 84.9375C1398.5 92.4375 1377.31 103.219 1358.56 117.281C1339.81 131.344 1324.06 148.312 1311.31 168.187L1323.69 204.187L1360.25 217.687ZM1329.87 397.687L1363.62 393.75L1385.56 357.187L1350.69 249.75L1310.75 236.25L1283.75 258.187C1283.75 285.187 1286.75 309.844 1292.75 332.156C1298.75 354.469 1311.12 376.312 1329.87 397.687ZM1475 461.25C1485.12 461.25 1495.34 460.312 1505.66 458.437C1515.97 456.562 1526.75 454.125 1538 451.125L1556.56 410.625L1538.56 379.687H1412L1394 410.625L1412.56 451.125C1422.31 454.125 1432.62 456.562 1443.5 458.437C1454.37 460.312 1464.87 461.25 1475 461.25ZM1415.37 345.937H1532.37L1566.69 243L1475 177.187L1381.62 243L1415.37 345.937ZM1620.69 397.687C1639.06 376.312 1651.25 354.469 1657.25 332.156C1663.25 309.844 1666.25 285.187 1666.25 258.187L1639.25 239.625L1599.87 249.75L1565 357.187L1586.37 393.75L1620.69 397.687Z" fill="#F7F7F7"/>
</svg>
