<svg fill="#ffffff" height="64px" width="64px" version="1.1" id="Layer_1" xmlns="http://www.w3.org/2000/svg" xmlns:xlink="http://www.w3.org/1999/xlink" viewBox="0 0 512.00 512.00" xml:space="preserve" stroke="#ffffff"><g id="SVGRepo_bgCarrier" stroke-width="0"></g><g id="SVGRepo_tracerCarrier" stroke-linecap="round" stroke-linejoin="round" stroke="#CCCCCC" stroke-width="22.528"></g><g id="SVGRepo_iconCarrier"> <g> <g> <path d="M88.065,0v512h335.87V0H88.065z M207.775,15.633h96.45v32.402h-96.45V15.633z M159.739,15.633h32.402v48.035h127.716 V15.633h32.402v96.45h-192.52V15.633z M287.249,127.716c-3.503,13.997-16.182,24.397-31.249,24.397 c-15.067,0-27.747-10.4-31.249-24.397H287.249z M304.224,496.367h-96.45v-32.402h96.45V496.367z M352.26,496.367h-32.402v-48.035 H192.142v48.035h-32.402v-96.45H352.26V496.367z M224.751,384.284c3.503-13.997,16.182-24.397,31.249-24.397 c15.067,0,27.747,10.4,31.249,24.397H224.751z M408.301,496.366h-40.407V384.284h-64.696c-3.744-22.676-23.478-40.03-47.197-40.03 s-43.454,17.354-47.197,40.03h-64.696v112.083h-40.409V263.816h105.104c3.744,22.676,23.478,40.03,47.197,40.03 c23.72,0,43.454-17.354,47.197-40.03h105.104V496.366z M287.249,263.816c-3.503,13.997-16.182,24.397-31.249,24.397 c-15.067,0-27.747-10.4-31.249-24.397H287.249z M224.751,248.183c3.503-13.997,16.182-24.397,31.249-24.397 c15.067,0,27.747,10.4,31.249,24.397H224.751z M408.301,248.183H303.197c-3.744-22.676-23.478-40.03-47.197-40.03 s-43.454,17.354-47.197,40.03H103.698V15.633h40.408v112.083h64.696c3.744,22.676,23.478,40.03,47.197,40.03 c23.72,0,43.454-17.354,47.197-40.03h64.696V15.633h40.408V248.183z"></path> </g> </g> </g></svg>